<?xml version="1.0" standalone="no"?>
<!DOCTYPE svg PUBLIC "-//W3C//DTD SVG 20010904//EN"
 "http://www.w3.org/TR/2001/REC-SVG-20010904/DTD/svg10.dtd">
<svg version="1.0" xmlns="http://www.w3.org/2000/svg"
 width="300.000000pt" height="300.000000pt" viewBox="0 0 300.000000 300.000000"
 preserveAspectRatio="xMidYMid meet">

<g transform="translate(0.000000,300.000000) scale(0.100000,-0.100000)"
fill="#000000" stroke="none">
<path d="M1350 2874 c0 -4 7 -16 17 -26 15 -17 15 -18 -1 -18 -9 0 -24 -4 -34
-9 -9 -5 -37 -16 -62 -25 -79 -28 -110 -53 -136 -109 -13 -30 -36 -64 -50 -78
-14 -13 -35 -42 -47 -64 -20 -39 -20 -45 -7 -204 12 -149 11 -165 -4 -173 -49
-28 14 -308 70 -308 6 0 18 -24 24 -52 7 -29 26 -82 42 -117 l28 -65 -11 -129
c-6 -71 -8 -139 -5 -151 4 -11 69 -77 145 -146 130 -116 153 -143 134 -152 -5
-2 -30 -27 -58 -56 l-49 -52 43 -44 44 -45 -36 -73 c-32 -66 -37 -85 -47 -208
-6 -74 -13 -150 -16 -169 l-5 -33 -31 63 c-49 104 -127 296 -160 393 -31 90
-31 93 -32 302 l-1 211 -55 -36 c-30 -21 -93 -49 -140 -63 -47 -15 -143 -44
-215 -66 -125 -39 -191 -58 -283 -82 -92 -24 -132 -91 -197 -328 -27 -96 -85
-356 -85 -377 0 -19 270 -111 475 -163 662 -168 1271 -157 1920 34 99 30 331
110 343 120 6 4 -37 222 -64 323 -51 195 -85 292 -117 327 -38 45 -63 57 -167
83 -47 12 -179 51 -295 87 -189 59 -247 83 -310 129 -20 14 -20 12 -21 -193 0
-132 -5 -223 -13 -252 -19 -67 -74 -212 -126 -330 -25 -58 -53 -122 -62 -143
-8 -21 -17 -36 -19 -34 -3 2 -11 78 -20 168 -14 150 -18 170 -50 239 -34 72
-35 75 -17 90 10 9 29 28 42 43 l24 26 -57 65 -57 64 53 50 c29 27 93 85 141
128 48 43 90 89 93 101 4 12 1 81 -5 152 l-11 130 30 63 c17 35 36 87 42 116
9 38 18 52 34 56 24 6 40 37 59 120 21 86 20 172 -2 184 -15 9 -15 22 -3 160
18 204 3 287 -54 313 -12 6 -28 25 -34 43 -15 41 -102 107 -180 137 -42 16
-90 24 -182 29 -69 3 -135 12 -147 19 -13 6 -23 9 -23 5z"/>
</g>
</svg>
