<?xml version="1.0" standalone="no"?>
<!DOCTYPE svg PUBLIC "-//W3C//DTD SVG 20010904//EN"
 "http://www.w3.org/TR/2001/REC-SVG-20010904/DTD/svg10.dtd">
<svg version="1.0" xmlns="http://www.w3.org/2000/svg"
 width="720.000000pt" height="755.000000pt" viewBox="0 0 720.000000 755.000000"
 preserveAspectRatio="xMidYMid meet">

<g transform="translate(0.000000,755.000000) scale(0.100000,-0.100000)"
fill="#000000" stroke="none">
<path d="M3220 7199 c-530 -51 -932 -345 -1198 -876 -199 -395 -310 -842 -392
-1573 -32 -292 -49 -412 -65 -475 -50 -190 -205 -351 -425 -441 -146 -59 -322
-92 -603 -110 -103 -7 -103 -6 39 -77 243 -122 433 -168 608 -146 69 9 102 17
201 54 41 15 -23 -25 -79 -50 -121 -54 -288 -77 -457 -65 -52 4 -97 6 -101 4
-13 -8 33 -149 77 -239 57 -117 124 -191 213 -238 91 -48 173 -66 313 -69
l114 -3 -4 -30 c-4 -38 -37 -108 -61 -130 -35 -31 -92 -44 -202 -45 -60 0
-108 -3 -108 -6 0 -12 74 -98 135 -157 78 -76 191 -150 344 -227 68 -33 121
-63 119 -65 -2 -3 -168 -54 -368 -115 -391 -119 -435 -137 -563 -239 -201
-159 -332 -383 -458 -778 -22 -71 -61 -190 -85 -266 -35 -107 -42 -142 -33
-153 32 -38 194 -191 239 -225 28 -21 79 -52 114 -69 l63 -31 2999 0 2999 0
70 35 c39 19 98 57 132 83 134 104 233 187 233 195 0 8 -158 384 -230 548 -59
136 -153 309 -229 425 -87 133 -248 294 -351 352 -79 44 -85 46 -675 207 -192
53 -358 100 -367 104 -15 6 -9 17 38 72 395 463 527 1230 390 2266 -115 867
-289 1384 -611 1820 -81 110 -292 316 -405 397 -118 83 -340 195 -481 241
-260 85 -608 122 -889 95z m715 -1040 c530 -304 810 -716 876 -1289 7 -68 10
-185 6 -335 -7 -294 -36 -495 -143 -968 l-18 -79 -90 -77 c-50 -43 -147 -124
-216 -180 l-125 -103 -208 4 c-169 4 -206 2 -195 -8 20 -20 181 -114 195 -114
37 0 13 -27 -76 -85 -184 -121 -377 -195 -505 -195 -137 0 -328 79 -493 204
-119 90 -371 324 -511 475 l-104 111 -28 153 c-49 264 -88 627 -116 1092 l-16
269 34 32 c53 48 138 77 233 78 96 0 150 -20 219 -85 26 -23 48 -40 50 -38 2
2 40 67 84 144 120 207 109 205 116 20 4 -88 10 -198 14 -244 l7 -83 455 676
c250 372 457 676 460 676 3 0 46 -23 95 -51z m488 -2989 c-4 -4 -24 -10 -43
-13 l-35 -6 40 35 c38 34 40 35 43 14 2 -12 0 -26 -5 -30z m-1430 -342 c123
-84 334 -158 447 -158 146 0 401 109 611 260 l56 41 74 -20 c41 -11 117 -25
168 -31 52 -6 96 -12 97 -13 1 -1 7 -81 13 -178 l12 -177 -112 -368 c-61 -203
-135 -448 -164 -544 -29 -96 -123 -409 -210 -695 -86 -286 -160 -523 -164
-527 -3 -3 -183 -8 -400 -10 l-395 -3 -26 145 c-15 80 -96 527 -181 993 -139
771 -152 851 -140 880 69 168 90 263 98 438 l6 127 75 -60 c41 -32 102 -77
135 -100z"/>
</g>
</svg>
